<svg fill="#5265E8" xmlns="http://www.w3.org/2000/svg" viewBox="0 0 295.3528 373.0933"><defs><style>.cls-1{fill:#000;}</style></defs><g id="Layer_2" data-name="Layer 2"><g id="references"><path class="cls-1" d="M226.35,180.0148c-20.4355,24.957-46.1506,39.54-78.5387,39.5742-32.51.0338-58.2568-14.7286-78.6358-39.55a146.5088,146.5088,0,0,0-41.0216,38.4567C11.7891,241.11,2.9677,266.4409.34,294.1887c-1.8686,19.7309,3.8627,35.9182,19.8326,48.1367,12.5681,9.6158,26.905,15.48,41.9242,19.8436,22.1831,6.4454,44.9126,9.4254,67.9468,10.4764,34.0987,1.5558,67.8231-.7623,100.8681-9.7873,17.2324-4.7064,33.7189-11.1565,47.4492-23.0953,10.4746-9.108,16.9274-20.3476,16.99-34.5421A144.2341,144.2341,0,0,0,270.7555,223.36,146.3043,146.3043,0,0,0,226.35,180.0148Z"/><path d="M161.4947.982A77.5463,77.5463,0,0,0,89.3077,28.26,101.6844,101.6844,0,0,0,78.44,44.699C66.8184,66.4041,63.1282,89.6559,66.6982,113.9606c4.1318,28.1291,16.1943,51.9209,39.9023,68.5565,18.7061,13.1258,39.4671,16.6907,61.4661,10.1085C190.54,185.9016,206.53,170.925,217,150.4677c17.9429-35.0592,17.8877-70.6342.0636-105.7542-9.1791-18.0862-22.9532-32.0389-42.076-39.6841A48.9985,48.9985,0,0,0,161.4947.982Z"/><path d="M226.35,180.0148A146.3043,146.3043,0,0,1,270.7555,223.36a144.2341,144.2341,0,0,1,24.5957,81.8611c-.0631,14.1945-6.5159,25.4341-16.99,34.5421-13.73,11.9388-30.2168,18.3889-47.4492,23.0953-33.045,9.025-66.7694,11.3431-100.8681,9.7873-23.0342-1.051-45.7637-4.031-67.9468-10.4764-15.0192-4.364-29.3561-10.2278-41.9242-19.8436C4.2025,330.1069-1.5288,313.92.34,294.1887c2.6279-27.7478,11.4493-53.0787,27.8137-75.6932a146.5088,146.5088,0,0,1,41.0216-38.4567c20.379,24.8216,46.126,39.584,78.6358,39.55C180.199,219.5552,205.9141,204.9718,226.35,180.0148Z"/></g></g></svg>